<?xml version="1.0" encoding="UTF-8"?>
<svg width="24px" height="24px" viewBox="0 0 24 24" version="1.1" xmlns="http://www.w3.org/2000/svg" xmlns:xlink="http://www.w3.org/1999/xlink">
    <title>codeberg (2)</title>
    <g id="Page-1" stroke="none" stroke-width="1" fill="none" fill-rule="evenodd">
        <g id="codeberg-(2)" transform="translate(0.000000, 0.000000)" fill="#000000" fill-rule="nonzero">
            <path d="M11.955,0 C5.34516337,0.0248081553 0,5.39013799 0,12.0000211 C0,14.25426 0.634860684,16.4629293 1.832,18.3730211 L11.838,5.43802109 C11.8713904,5.39466601 11.9331533,5.367952 12,5.367952 C12.0668467,5.367952 12.1286096,5.39466601 12.162,5.43802109 L22.168,18.3730211 C23.3651393,16.4629293 24,14.25426 24,12.0000211 C24,5.3726041 18.627417,0 12,0 C11.985,0 11.97,0 11.955,0 Z M12.33,6.46702109 L16.746,23.0200211 C18.8207025,22.1271262 20.6012837,20.6668208 21.883,18.8070211 L12.33,6.46702109 Z" id="Shape"></path>
        </g>
    </g>
</svg>