<?xml version="1.0" encoding="UTF-8"?>
<svg width="124px" height="120px" viewBox="0 0 124 120" version="1.1" xmlns="http://www.w3.org/2000/svg" xmlns:xlink="http://www.w3.org/1999/xlink">
    <title>Path</title>
    <g id="Page-1" stroke="none" stroke-width="1" fill="none" fill-rule="evenodd">
        <g id="IconCodeberg" transform="translate(0.000000, 0.531553)" fill="#FFFFFF" fill-rule="nonzero">
            <path d="M61.767498,-1.77635684e-15 C27.616678,0.12818375 0,27.8490548 0,62.0001087 C0,73.6470128 3.280114,85.0584738 9.465333,94.9272857 L61.163002,28.0964448 C61.335518,27.8724457 61.654625,27.7344228 62,27.7344228 C62.345375,27.7344228 62.664482,27.8724457 62.836998,28.0964448 L114.53466,94.9272857 C120.719887,85.0584738 124,73.6470128 124,62.0001087 C124,27.7584627 96.241653,-1.77635684e-15 62,-1.77635684e-15 C61.922497,-1.77635684e-15 61.845001,-1.77635684e-15 61.767498,-1.77635684e-15 Z M63.704998,33.4129508 L86.521004,118.936785 C97.240295,114.323489 106.439964,106.778574 113.062164,97.1696188 L63.704998,33.4129508 Z" id="Path"></path>
        </g>
    </g>
</svg>